<svg width="401" height="113" viewBox="0 0 401 113" fill="none" xmlns="http://www.w3.org/2000/svg">
<path d="M32.4937 112.25C26.457 112.25 21.0418 110.873 16.2479 108.119C11.4541 105.366 7.63679 101.591 4.79599 96.7939C2.04398 91.9083 0.667969 86.3565 0.667969 80.1385C0.667969 74.0093 2.04398 68.4576 4.79599 63.4832C7.63679 58.5088 11.4541 54.5559 16.2479 51.6246C21.0418 48.6932 26.5014 47.2276 32.6269 47.2276C38.3085 47.2276 43.2798 48.2935 47.541 50.4254C51.8022 52.5573 55.1757 55.4886 57.6614 59.2194L49.2721 68.4132L48.4732 69.3459L47.4079 68.5464C47.4079 67.7469 47.3191 67.0363 47.1415 66.4145C46.964 65.7039 46.387 64.7712 45.4104 63.6164C43.7237 62.0175 41.8151 60.9071 39.6845 60.2853C37.6427 59.6636 35.3345 59.3527 32.76 59.3527C29.8305 59.3527 27.0785 60.1521 24.504 61.751C21.9295 63.3499 19.8433 65.7039 18.2454 68.8129C16.7362 71.9219 15.9816 75.6971 15.9816 80.1385C15.9816 84.1358 16.7806 87.6445 18.3785 90.6647C19.9765 93.596 22.0627 95.9056 24.6372 97.5933C27.3004 99.1922 30.1412 99.9917 33.1595 99.9917C35.9115 99.9917 38.6192 99.4143 41.2824 98.2595C43.9457 97.1048 46.4314 95.1061 48.7395 92.2636L57.1287 101.857C53.844 105.499 50.0267 108.164 45.6768 109.852C41.3268 111.451 36.9325 112.25 32.4937 112.25Z" fill="white"/>
<path d="M91.2182 111.984C85.7142 111.984 80.6984 110.651 76.1709 107.986C71.7322 105.233 68.2255 101.457 65.6511 96.6606C63.0766 91.775 61.7894 86.09 61.7894 79.6055C61.7894 73.4764 63.0766 67.969 65.6511 63.0834C68.2255 58.1979 71.7322 54.3338 76.1709 51.4913C80.6984 48.6488 85.7142 47.2276 91.2182 47.2276C96.811 47.2276 101.827 48.6488 106.266 51.4913C110.793 54.3338 114.344 58.1979 116.919 63.0834C119.582 67.969 120.913 73.4764 120.913 79.6055C120.913 86.0012 119.582 91.6418 116.919 96.5274C114.344 101.413 110.793 105.233 106.266 107.986C101.827 110.651 96.811 111.984 91.2182 111.984ZM91.2182 99.9917C95.4794 99.9917 98.986 98.1263 101.738 94.3955C104.49 90.5759 105.866 85.6459 105.866 79.6055C105.866 73.3875 104.49 68.4576 101.738 64.8156C98.986 61.1736 95.4794 59.3527 91.2182 59.3527C87.1346 59.3527 83.7167 61.1736 80.9647 64.8156C78.2127 68.4576 76.8367 73.3875 76.8367 79.6055C76.8367 85.6459 78.1683 90.5759 80.8316 94.3955C83.5836 98.1263 87.0458 99.9917 91.2182 99.9917Z" fill="white"/>
<path d="M150.742 112.117C146.125 112.117 141.864 110.918 137.958 108.519C134.141 106.121 131.034 102.479 128.637 97.5933C126.24 92.7077 125.041 86.623 125.041 79.3391C125.041 72.1439 126.195 66.1924 128.504 61.4845C130.812 56.6878 133.919 53.0902 137.825 50.6919C141.731 48.2935 146.081 47.0943 150.875 47.0943C153.982 47.0943 156.867 47.6717 159.53 48.8265C162.194 49.9812 164.28 51.8466 165.789 54.4227V21.2452H181.902V22.4444C181.369 22.9774 181.014 23.5992 180.836 24.3098C180.748 24.9316 180.703 25.9531 180.703 27.3744L180.57 102.39C180.57 103.811 180.659 105.188 180.836 106.521C181.014 107.853 181.413 109.23 182.035 110.651H167.254C166.544 109.23 166.144 108.119 166.055 107.32C165.967 106.432 165.922 105.277 165.922 103.856C164.235 106.698 162.06 108.786 159.397 110.118C156.734 111.451 153.849 112.117 150.742 112.117ZM153.272 99.9917C161.439 99.9917 165.523 93.1519 165.523 79.4723C165.523 65.7039 161.306 58.8197 152.872 58.8197C148.611 58.8197 145.371 60.6407 143.151 64.2826C140.932 67.9246 139.822 72.8546 139.822 79.0726C139.822 85.6459 141.11 90.7979 143.684 94.5287C146.347 98.1707 149.543 99.9917 153.272 99.9917Z" fill="white"/>
<path d="M219.32 112.117C213.372 112.117 208.046 110.873 203.341 108.386C198.724 105.899 195.085 102.257 192.421 97.4601C189.758 92.6633 188.427 86.8895 188.427 80.1385C188.427 73.2099 189.714 67.3028 192.288 62.4172C194.951 57.5317 198.458 53.8009 202.808 51.2248C207.247 48.56 212.174 47.2276 217.589 47.2276C222.383 47.2276 226.777 48.3379 230.772 50.5586C234.856 52.7793 238.096 56.1548 240.493 60.6851C242.979 65.1265 244.221 70.6783 244.221 77.3404C244.221 78.2287 244.177 79.2946 244.088 80.5382C244.088 81.7818 244.044 82.8478 243.955 83.7361H202.941C203.119 87.6445 204.051 90.8423 205.738 93.3295C207.424 95.7279 209.511 97.5045 211.996 98.6592C214.482 99.814 217.145 100.391 219.986 100.391C222.738 100.391 225.357 99.9473 227.843 99.059C230.328 98.1707 232.636 96.6606 234.767 94.5287L242.49 101.99C239.472 105.543 236.01 108.119 232.104 109.718C228.198 111.317 223.936 112.117 219.32 112.117ZM203.208 72.4104H229.574C229.574 68.0578 228.464 64.7268 226.245 62.4172C224.025 60.1077 220.918 58.9529 216.923 58.9529C213.461 58.9529 210.443 60.0633 207.868 62.284C205.294 64.4159 203.74 67.7914 203.208 72.4104Z" fill="white"/>
<path d="M282.839 112.25C276.802 112.25 271.387 110.873 266.593 108.119C261.799 105.366 257.982 101.591 255.141 96.7939C252.389 91.9083 251.013 86.3565 251.013 80.1385C251.013 74.0093 252.389 68.4576 255.141 63.4832C257.982 58.5088 261.799 54.5559 266.593 51.6246C271.387 48.6932 276.846 47.2276 282.972 47.2276C288.653 47.2276 293.625 48.2935 297.886 50.4254C302.147 52.5573 305.52 55.4886 308.006 59.2194L299.617 68.4132L298.818 69.3459L297.753 68.5464C297.753 67.7469 297.664 67.0363 297.486 66.4145C297.309 65.7039 296.732 64.7712 295.755 63.6164C294.069 62.0175 292.16 60.9071 290.029 60.2853C287.987 59.6636 285.679 59.3527 283.105 59.3527C280.175 59.3527 277.423 60.1521 274.849 61.751C272.274 63.3499 270.188 65.7039 268.59 68.8129C267.081 71.9219 266.326 75.6971 266.326 80.1385C266.326 84.1358 267.125 87.6445 268.723 90.6647C270.321 93.596 272.407 95.9056 274.982 97.5933C277.645 99.1922 280.486 99.9917 283.504 99.9917C286.256 99.9917 288.964 99.4143 291.627 98.2595C294.29 97.1048 296.776 95.1061 299.084 92.2636L307.474 101.857C304.189 105.499 300.372 108.164 296.022 109.852C291.672 111.451 287.277 112.25 282.839 112.25Z" fill="white"/>
<path d="M390.889 13.3125H387.636V55.7296H390.889V52.4535H400.668V49.1989H390.889V42.6683H400.668V39.4137H390.889V29.6284H400.668V26.3524H390.889V19.8431H400.668V16.5671H390.889V13.3125Z" fill="white"/>
<path d="M345.245 55.7291V58.9837H348.497V68.769H351.75V58.9837H358.277V68.769H361.551V58.9837H371.33V68.769H374.583V58.9837H381.11V68.769H384.362V58.9837H387.636L387.636 55.7296L345.245 55.7291Z" fill="white"/>
<path d="M381.102 16.565H351.743V19.8411H348.49V49.1969H351.743V45.9423H358.269V42.6662H364.796V39.4116H368.049V36.157H371.323V32.881H374.575V29.6263H377.828V23.0957H381.102V49.1969H384.355V19.8411H381.102V16.565ZM361.543 32.881H355.017V29.6263H361.543V32.881ZM371.323 26.3503H355.017V23.0957H371.323V26.3503Z" fill="white"/>
<path d="M381.106 49.1979H351.746V52.4525H381.106V49.1979Z" fill="white"/>
<path d="M377.828 42.6666H374.576V45.9427H377.828V42.6666Z" fill="white"/>
<path d="M371.325 42.6666H368.051V45.9427H371.325V42.6666Z" fill="white"/>
<path d="M387.636 13.3125L387.636 10.0567H384.362V0.25H381.11V10.0567H374.583V0.25H371.33V10.0567H361.551V0.25H358.277V10.0567H351.75V0.25H348.497V10.0567H345.245V13.3113L387.636 13.3125Z" fill="white"/>
<path d="M345.238 13.3125H341.964V16.5671H332.185V19.8431H341.964V26.3524H332.185V29.6284H341.964V39.4137H332.185V42.6683H341.964V49.1989H332.185V52.4535H341.964V55.7296H345.238V13.3125Z" fill="white"/>
</svg>
